<svg width="485" height="485" xmlns="http://www.w3.org/2000/svg" xml:space="preserve" version="1.1">

 <g>
  <title>Layer 1</title>
  <g id="svg_1">
   <path fill="#eaeae4" id="svg_2" d="m168.404,305.486l68.192,0l18.428,61.115l57.887,0l-73.885,-238.312l-70.621,0l-72.95,238.312l55.875,0l17.074,-61.115zm32.795,-136.94l0.693,0c3.505,14.264 26.966,96.545 26.966,96.545l-52.75,0c0,0 21.55,-82.281 25.091,-96.545z"/>
   <rect fill="#eaeae4" id="svg_3" height="172.826" width="53.824" y="193.775" x="333.95"/>
   <path fill="#eaeae4" id="svg_4" d="m360.533,172.503c17.769,0 29.012,-12.078 29.012,-26.86c-0.415,-15.583 -11.243,-27.244 -28.595,-27.244c-17.352,0 -28.735,11.66 -28.353,27.244c-0.382,14.782 11.001,26.86 27.936,26.86z"/>
   <path fill="#eaeae4" id="svg_5" d="m0,0l0,485l485,0l0,-485l-485,0zm455,455l-425,0l0,-425l425,0l0,425z"/>
  </g>
  <g id="svg_6"/>
  <g id="svg_7"/>
  <g id="svg_8"/>
  <g id="svg_9"/>
  <g id="svg_10"/>
  <g id="svg_11"/>
  <g id="svg_12"/>
  <g id="svg_13"/>
  <g id="svg_14"/>
  <g id="svg_15"/>
  <g id="svg_16"/>
  <g id="svg_17"/>
  <g id="svg_18"/>
  <g id="svg_19"/>
  <g id="svg_20"/>
 </g>
</svg>